<?xml version="1.0" standalone="no"?>
<!DOCTYPE svg PUBLIC "-//W3C//DTD SVG 20010904//EN"
 "http://www.w3.org/TR/2001/REC-SVG-20010904/DTD/svg10.dtd">
<svg version="1.0" xmlns="http://www.w3.org/2000/svg"
 width="700.000000pt" height="700.000000pt" viewBox="0 0 700.000000 700.000000"
 preserveAspectRatio="xMidYMid meet">
<metadata>
Created by potrace 1.14, written by Peter Selinger 2001-2017
</metadata>
<g transform="translate(0.000000,700.000000) scale(0.100000,-0.100000)"
fill="#000000" stroke="none">
<path d="M0 3500 l0 -3500 1165 0 c925 0 1165 3 1166 13 0 6 2 680 3 1497 2
817 4 1488 4 1492 1 5 678 -669 1505 -1497 l1502 -1505 828 0 827 0 0 828 0
827 -2674 2673 -2675 2672 -825 0 -826 0 0 -3500z"/>
<path d="M4669 6998 c0 -2 -2 -482 -2 -1068 l-2 -1066 1168 -1167 1167 -1168
0 2236 0 2235 -1165 0 c-641 0 -1165 -1 -1166 -2z"/>
<path d="M2957 1503 c-2 -5 -3 -343 -3 -753 l1 -745 758 -3 759 -2 -379 378
c-208 208 -548 548 -755 755 -207 207 -378 374 -381 370z"/>
</g>
</svg>
